<svg xmlns="http://www.w3.org/2000/svg" viewBox="0 0 100 160">
  <g fill="none" stroke="#e9ddc6" stroke-width="3" stroke-linecap="round" stroke-linejoin="round">
    <path d="M42 53 C34 57 28 64 26 74 C17 84 11 100 11 116 C11 137 24 149 43 151 C48 152 54 152 59 151 C75 149 85 138 85 122 C85 110 81 101 76 96 C80 88 82 78 80 70 C77 59 69 52 61 51"></path>
    <path d="M42 52 C38 44 30 30 26 18 C24 10 28 5 33 10 C39 18 45 36 47 50"></path>
    <path d="M61 51 C62 36 64 16 68 8 C71 3 76 5 76 12 C76 27 71 43 66 52"></path>
    <path d="M44 151 C44 145 47 143 50 145 M56 151 C56 145 53 143 50 145 M47 149 L47 152 M53 149 L53 152" stroke-width="2"></path>
    <path d="M21 106 L24 105 M19 116 L22 115 M22 126 L25 125 M28 136 L31 135 M20 96 L23 95" stroke-width="1.6" opacity=".8"></path>
  </g>
  <path fill="#e9ddc6" d="M38 42 C34 33 30 23 29 17 C31 14 34 18 36 23 C39 31 41 39 42 45 C41 44 39 43 38 42 Z"></path>
  <path fill="#e9ddc6" d="M65 45 C66 33 68 19 70 13 C72 9 74 12 73 19 C72 29 69 40 67 47 C66 46 66 45 65 45 Z"></path>
  <circle cx="38" cy="74" r="2.7" fill="#e9ddc6"></circle>
  <circle cx="58" cy="74" r="2.7" fill="#e9ddc6"></circle>
  <path d="M46 81 C47 83 49 83 50 81 M48 83 L48 86 M48 86 C46 88 44 88 43 87 M48 86 C50 88 52 88 53 87" fill="none" stroke="#e9ddc6" stroke-width="1.7" stroke-linecap="round"></path>
</svg>