<svg xmlns="http://www.w3.org/2000/svg" viewBox="0 0 640 420" role="img" aria-labelledby="title desc">
  <title id="title">Logistics routing optimization diagram</title>
  <desc id="desc">Abstract route network with clustered stops and depot.</desc>
  <rect width="640" height="420" fill="#101418"/>
  <path d="M84 330c54-62 110-95 168-100 78-7 108 51 176 28 48-16 82-58 126-110" fill="none" stroke="#2d6d78" stroke-width="18" stroke-linecap="round"/>
  <path d="M84 330c54-62 110-95 168-100 78-7 108 51 176 28 48-16 82-58 126-110" fill="none" stroke="#47c5d6" stroke-width="6" stroke-linecap="round"/>
  <path d="M112 114c66 28 108 66 126 114M238 228c-18 58-52 92-102 102M238 228c62-78 126-106 192-84M430 144c18 40 18 78-2 114" fill="none" stroke="#5e6a78" stroke-width="3" opacity=".7"/>
  <rect x="92" y="86" width="68" height="50" rx="8" fill="#e8edf2"/>
  <path d="M108 136h16M134 136h16" stroke="#e8edf2" stroke-width="14" stroke-linecap="round"/>
  <circle cx="112" cy="114" r="18" fill="#087f8c"/>
  <circle cx="238" cy="228" r="18" fill="#f59e0b"/>
  <circle cx="428" cy="258" r="18" fill="#f59e0b"/>
  <circle cx="136" cy="330" r="18" fill="#47c5d6"/>
  <circle cx="430" cy="144" r="18" fill="#47c5d6"/>
  <circle cx="554" cy="148" r="18" fill="#47c5d6"/>
  <circle cx="286" cy="168" r="10" fill="#e8edf2"/>
  <circle cx="344" cy="202" r="10" fill="#e8edf2"/>
  <circle cx="196" cy="286" r="10" fill="#e8edf2"/>
</svg>
